<svg xmlns="http://www.w3.org/2000/svg" viewBox="0 0 32 32" width="32" height="32">
  <!-- Simplified version for favicon -->
  <defs>
    <linearGradient id="pillGrad" x1="0%" y1="0%" x2="100%" y2="100%">
      <stop offset="0%" style="stop-color:#34A853"/>
      <stop offset="100%" style="stop-color:#22C55E"/>
    </linearGradient>
  </defs>
  
  <!-- Speed lines -->
  <rect x="2" y="8" width="8" height="1.5" rx="1" fill="#1F4A2D"/>
  <rect x="3" y="11" width="6" height="1.5" rx="1" fill="#1F4A2D"/>
  <rect x="2.5" y="14" width="7" height="1.5" rx="1" fill="#1F4A2D"/>
  
  <!-- Main pill -->
  <path d="M10 12 L24 12 C28 12 30 14 30 18 L30 22 C30 26 28 28 24 28 L14 28 C10 28 8 26 8 22 L8 16 C8 14 9 12 10 12 Z" 
        fill="url(#pillGrad)" 
        stroke="#1F4A2D" 
        stroke-width="1"/>
  
  <!-- Top part -->
  <path d="M8 8 L22 8 C26 8 28 10 28 14 L28 18 C28 22 26 24 22 24 L12 24 C8 24 6 22 6 18 L6 12 C6 10 7 8 8 8 Z" 
        fill="#E8F5E8" 
        stroke="#1F4A2D" 
        stroke-width="1"/>
  
  <!-- Highlight -->
  <ellipse cx="11" cy="13" rx="1.5" ry="1" fill="white" opacity="0.8"/>
</svg>
